<?xml version="1.0" encoding="utf-8"?>
<svg viewBox="0 0 674 376" xmlns="http://www.w3.org/2000/svg">
  <g transform="matrix(0.1, 0, 0, -0.1, 0, 376)" fill="#000000" stroke="none">
    <path d="M2272 3098 c-305 -38 -604 -188 -815 -407 -193 -201 -289 -379 -544 -1006 -205 -504 -318 -719 -472 -902 l-61 -72 42 -12 c24 -7 90 -12 148 -12 88 0 117 4 179 26 133 47 233 133 313 270 l41 70 -17 151 c-20 189 -21 458 -1 591 14 94 54 259 61 253 1 -2 -4 -51 -12 -108 -22 -148 -14 -462 15 -625 42 -236 119 -490 221 -732 l52 -123 279 0 c178 0 279 4 279 10 0 20 -123 129 -176 157 -63 33 -74 56 -74 167 0 179 70 314 357 694 106 140 177 245 207 305 51 101 59 98 22 -9 -27 -81 -82 -192 -177 -360 -38 -67 -69 -124 -69 -126 0 -2 118 -2 263 0 188 3 365 -2 627 -16 201 -12 408 -23 460 -25 l95 -4 1 271 c2 339 17 448 27 186 13 -367 107 -772 261 -1125 l52 -120 267 -3 c147 -1 267 1 267 6 0 13 -45 70 -72 92 -30 23 -147 80 -165 80 -17 0 -60 88 -80 163 -21 83 -12 192 26 327 54 192 63 243 68 380 4 110 1 155 -16 239 -11 58 -19 106 -17 108 7 8 56 -103 71 -162 19 -75 20 -259 1 -357 -8 -40 -30 -126 -50 -191 -42 -138 -53 -231 -37 -308 15 -72 50 -159 65 -159 25 0 137 -61 176 -96 22 -20 53 -57 67 -81 l25 -43 119 0 c105 0 119 2 119 17 0 30 -103 118 -184 159 -87 42 -97 56 -137 184 -33 104 -33 325 -1 445 29 109 120 286 187 364 139 163 408 309 603 327 l74 7 -50 48 c-62 59 -104 119 -134 190 -19 47 -22 72 -22 184 0 77 5 140 11 155 10 21 11 13 7 -45 -17 -210 92 -403 282 -502 197 -103 554 -155 737 -107 161 41 260 138 269 261 l3 42 -355 315 -355 315 -328 126 c-180 69 -332 123 -337 120 -15 -9 -22 -128 -12 -196 5 -35 9 -65 8 -66 -1 -1 -89 -10 -196 -19 -259 -22 -549 -22 -710 0 -220 30 -628 124 -932 215 -177 54 -288 79 -417 96 -117 16 -316 17 -429 3z" style="fill: rgb(255, 255, 255);"/>
    <path d="M2460 1253 c-173 -26 -305 -90 -368 -178 l-23 -32 26 -118 c31 -137 82 -290 132 -393 l36 -72 293 0 c194 0 294 3 294 10 0 6 -19 31 -42 56 -42 46 -99 80 -171 103 -105 34 -142 303 -68 500 17 46 38 95 46 108 l15 23 -72 -1 c-40 -1 -84 -3 -98 -6z" style="fill: rgb(255, 255, 255);"/>
  </g>
</svg>